<mxfile host="Electron" agent="Mozilla/5.0 (Windows NT 10.0; Win64; x64) AppleWebKit/537.36 (KHTML, like Gecko) draw.io/28.1.2 Chrome/138.0.7204.243 Electron/37.4.0 Safari/537.36" version="28.1.2">
  <diagram name="Страница — 1" id="9aS2IVQcP6neh0ZZKBCm">
    <mxGraphModel dx="860" dy="602" grid="1" gridSize="10" guides="1" tooltips="1" connect="1" arrows="1" fold="1" page="1" pageScale="1" pageWidth="827" pageHeight="1169" math="0" shadow="0">
      <root>
        <mxCell id="0" />
        <mxCell id="1" parent="0" />
        <mxCell id="7g6ssikjgnAoYL0zabRa-1" value="" style="group" vertex="1" connectable="0" parent="1">
          <mxGeometry x="430" y="470" width="620" height="300" as="geometry" />
        </mxCell>
        <mxCell id="7g6ssikjgnAoYL0zabRa-2" value="Стандартный кластер из 3 или 5 master-узлов" style="rounded=1;whiteSpace=wrap;html=1;strokeColor=#7C8A9A;strokeWidth=1;fontColor=#212121;fillColor=none;dashed=1;fontFamily=VK Sans Display;verticalAlign=top;spacing=10;fontStyle=1;arcSize=12;absoluteArcSize=1;container=0;" vertex="1" parent="7g6ssikjgnAoYL0zabRa-1">
          <mxGeometry width="620" height="300" as="geometry" />
        </mxCell>
        <mxCell id="7g6ssikjgnAoYL0zabRa-3" value="" style="group" vertex="1" connectable="0" parent="7g6ssikjgnAoYL0zabRa-1">
          <mxGeometry x="430" y="45" width="180" height="255" as="geometry" />
        </mxCell>
        <mxCell id="7g6ssikjgnAoYL0zabRa-4" value="&lt;font color=&quot;#212121&quot;&gt;Зона доступности&amp;nbsp;3&lt;/font&gt;" style="rounded=1;whiteSpace=wrap;html=1;fontFamily=VK Sans Display;strokeColor=none;arcsize=12;fillColor=#F6F7F9;spacing=10;verticalAlign=top;spacingTop=0;spacingLeft=0;spacingRight=0;fontStyle=1;arcSize=12;absoluteArcSize=1;container=0;" vertex="1" parent="7g6ssikjgnAoYL0zabRa-3">
          <mxGeometry width="180" height="235.38461538461544" as="geometry" />
        </mxCell>
        <mxCell id="7g6ssikjgnAoYL0zabRa-5" value="&lt;font color=&quot;#212121&quot;&gt;Node 1&lt;/font&gt;" style="rounded=1;whiteSpace=wrap;html=1;fontFamily=VK Sans Display;strokeColor=#7C8A9A;arcsize=12;fillColor=#FFFFFF;spacing=0;spacingTop=12;spacingBottom=12;arcSize=12;absoluteArcSize=1;strokeWidth=1;container=0;" vertex="1" parent="7g6ssikjgnAoYL0zabRa-3">
          <mxGeometry x="11.25" y="60.9" width="137.5" height="39.23" as="geometry" />
        </mxCell>
        <mxCell id="7g6ssikjgnAoYL0zabRa-6" value="&lt;font color=&quot;#212121&quot;&gt;Node 1&lt;/font&gt;" style="rounded=1;whiteSpace=wrap;html=1;fontFamily=VK Sans Display;strokeColor=#7C8A9A;arcsize=12;fillColor=#FFFFFF;spacing=0;spacingTop=12;spacingBottom=12;arcSize=12;absoluteArcSize=1;strokeWidth=1;container=0;" vertex="1" parent="7g6ssikjgnAoYL0zabRa-3">
          <mxGeometry x="21.25" y="70.71" width="137.5" height="39.23" as="geometry" />
        </mxCell>
        <mxCell id="7g6ssikjgnAoYL0zabRa-7" value="&lt;font color=&quot;#212121&quot;&gt;Группа worker-узлов&amp;nbsp;C&lt;/font&gt;" style="rounded=1;whiteSpace=wrap;html=1;fontFamily=VK Sans Display;strokeColor=#7C8A9A;arcsize=12;fillColor=#FFFFFF;spacing=0;spacingTop=12;spacingBottom=12;arcSize=12;absoluteArcSize=1;strokeWidth=1;container=0;" vertex="1" parent="7g6ssikjgnAoYL0zabRa-3">
          <mxGeometry x="31.25" y="80.52" width="137.5" height="39.23" as="geometry" />
        </mxCell>
        <mxCell id="7g6ssikjgnAoYL0zabRa-8" value="&lt;font color=&quot;#212121&quot;&gt;Зона доступности&amp;nbsp;1&lt;/font&gt;" style="rounded=1;whiteSpace=wrap;html=1;fontFamily=VK Sans Display;strokeColor=none;arcsize=12;fillColor=#F6F7F9;spacing=10;verticalAlign=top;spacingTop=0;spacingLeft=0;spacingRight=0;fontStyle=1;arcSize=12;absoluteArcSize=1;container=0;" vertex="1" parent="7g6ssikjgnAoYL0zabRa-1">
          <mxGeometry x="10" y="45" width="180" height="235" as="geometry" />
        </mxCell>
        <mxCell id="7g6ssikjgnAoYL0zabRa-9" value="&lt;font color=&quot;#212121&quot;&gt;Node 1&lt;/font&gt;" style="rounded=1;whiteSpace=wrap;html=1;fontFamily=VK Sans Display;strokeColor=#7C8A9A;arcsize=12;fillColor=#FFFFFF;spacing=0;spacingTop=12;spacingBottom=12;arcSize=12;absoluteArcSize=1;strokeWidth=1;container=0;" vertex="1" parent="7g6ssikjgnAoYL0zabRa-1">
          <mxGeometry x="21.25" y="104.75" width="137.5" height="40" as="geometry" />
        </mxCell>
        <mxCell id="7g6ssikjgnAoYL0zabRa-10" value="&lt;font color=&quot;#212121&quot;&gt;Node 1&lt;/font&gt;" style="rounded=1;whiteSpace=wrap;html=1;fontFamily=VK Sans Display;strokeColor=#7C8A9A;arcsize=12;fillColor=#FFFFFF;spacing=0;spacingTop=12;spacingBottom=12;arcSize=12;absoluteArcSize=1;strokeWidth=1;container=0;" vertex="1" parent="7g6ssikjgnAoYL0zabRa-1">
          <mxGeometry x="31.25" y="114.75" width="137.5" height="40" as="geometry" />
        </mxCell>
        <mxCell id="7g6ssikjgnAoYL0zabRa-11" value="&lt;font color=&quot;#212121&quot;&gt;Группа worker-узлов&amp;nbsp;A&lt;/font&gt;" style="rounded=1;whiteSpace=wrap;html=1;fontFamily=VK Sans Display;strokeColor=#7C8A9A;arcsize=12;fillColor=#FFFFFF;spacing=0;spacingTop=12;spacingBottom=12;arcSize=12;absoluteArcSize=1;strokeWidth=1;container=0;" vertex="1" parent="7g6ssikjgnAoYL0zabRa-1">
          <mxGeometry x="41.25" y="124.75" width="137.5" height="40" as="geometry" />
        </mxCell>
        <mxCell id="7g6ssikjgnAoYL0zabRa-12" value="&lt;font color=&quot;#212121&quot;&gt;Node 1&lt;/font&gt;" style="rounded=1;whiteSpace=wrap;html=1;fontFamily=VK Sans Display;strokeColor=#7C8A9A;arcsize=12;fillColor=#FFFFFF;spacing=0;spacingTop=12;spacingBottom=12;arcSize=12;absoluteArcSize=1;strokeWidth=1;container=0;" vertex="1" parent="7g6ssikjgnAoYL0zabRa-1">
          <mxGeometry x="21.25" y="185.25" width="137.5" height="40" as="geometry" />
        </mxCell>
        <mxCell id="7g6ssikjgnAoYL0zabRa-13" value="&lt;font color=&quot;#212121&quot;&gt;Node 1&lt;/font&gt;" style="rounded=1;whiteSpace=wrap;html=1;fontFamily=VK Sans Display;strokeColor=#7C8A9A;arcsize=12;fillColor=#FFFFFF;spacing=0;spacingTop=12;spacingBottom=12;arcSize=12;absoluteArcSize=1;strokeWidth=1;container=0;" vertex="1" parent="7g6ssikjgnAoYL0zabRa-1">
          <mxGeometry x="31.25" y="195.25" width="137.5" height="40" as="geometry" />
        </mxCell>
        <mxCell id="7g6ssikjgnAoYL0zabRa-14" value="&lt;span style=&quot;color: rgb(33, 33, 33);&quot;&gt;Группа worker-узлов&amp;nbsp;D&lt;/span&gt;" style="rounded=1;whiteSpace=wrap;html=1;fontFamily=VK Sans Display;strokeColor=#7C8A9A;arcsize=12;fillColor=#FFFFFF;spacing=0;spacingTop=12;spacingBottom=12;arcSize=12;absoluteArcSize=1;strokeWidth=1;container=0;" vertex="1" parent="7g6ssikjgnAoYL0zabRa-1">
          <mxGeometry x="41.25" y="205.25" width="137.5" height="40" as="geometry" />
        </mxCell>
        <mxCell id="7g6ssikjgnAoYL0zabRa-15" value="&lt;font color=&quot;#212121&quot;&gt;Зона доступности&amp;nbsp;2&lt;/font&gt;" style="rounded=1;whiteSpace=wrap;html=1;fontFamily=VK Sans Display;strokeColor=none;arcsize=12;fillColor=#F6F7F9;spacing=10;verticalAlign=top;spacingTop=0;spacingLeft=0;spacingRight=0;fontStyle=1;arcSize=12;absoluteArcSize=1;container=0;" vertex="1" parent="7g6ssikjgnAoYL0zabRa-1">
          <mxGeometry x="220" y="45" width="180" height="235" as="geometry" />
        </mxCell>
        <mxCell id="7g6ssikjgnAoYL0zabRa-16" value="&lt;font color=&quot;#212121&quot;&gt;Node 1&lt;/font&gt;" style="rounded=1;whiteSpace=wrap;html=1;fontFamily=VK Sans Display;strokeColor=#7C8A9A;arcsize=12;fillColor=#FFFFFF;spacing=0;spacingTop=12;spacingBottom=12;arcSize=12;absoluteArcSize=1;strokeWidth=1;container=0;" vertex="1" parent="7g6ssikjgnAoYL0zabRa-1">
          <mxGeometry x="231.25" y="104.75" width="137.5" height="40" as="geometry" />
        </mxCell>
        <mxCell id="7g6ssikjgnAoYL0zabRa-17" value="&lt;font color=&quot;#212121&quot;&gt;Node 1&lt;/font&gt;" style="rounded=1;whiteSpace=wrap;html=1;fontFamily=VK Sans Display;strokeColor=#7C8A9A;arcsize=12;fillColor=#FFFFFF;spacing=0;spacingTop=12;spacingBottom=12;arcSize=12;absoluteArcSize=1;strokeWidth=1;container=0;" vertex="1" parent="7g6ssikjgnAoYL0zabRa-1">
          <mxGeometry x="241.25" y="114.75" width="137.5" height="40" as="geometry" />
        </mxCell>
        <mxCell id="7g6ssikjgnAoYL0zabRa-18" value="&lt;font color=&quot;#212121&quot;&gt;Master-узлы&lt;/font&gt;" style="rounded=1;whiteSpace=wrap;html=1;fontFamily=VK Sans Display;strokeColor=#7C8A9A;arcsize=12;fillColor=#FFFFFF;spacing=0;spacingTop=12;spacingBottom=12;arcSize=12;absoluteArcSize=1;strokeWidth=1;container=0;" vertex="1" parent="7g6ssikjgnAoYL0zabRa-1">
          <mxGeometry x="251.25" y="124.75" width="137.5" height="40" as="geometry" />
        </mxCell>
        <mxCell id="7g6ssikjgnAoYL0zabRa-19" value="&lt;font color=&quot;#212121&quot;&gt;Node 1&lt;/font&gt;" style="rounded=1;whiteSpace=wrap;html=1;fontFamily=VK Sans Display;strokeColor=#7C8A9A;arcsize=12;fillColor=#FFFFFF;spacing=0;spacingTop=12;spacingBottom=12;arcSize=12;absoluteArcSize=1;strokeWidth=1;container=0;" vertex="1" parent="7g6ssikjgnAoYL0zabRa-1">
          <mxGeometry x="231.25" y="185.25" width="137.5" height="40" as="geometry" />
        </mxCell>
        <mxCell id="7g6ssikjgnAoYL0zabRa-20" value="&lt;font color=&quot;#212121&quot;&gt;Node 1&lt;/font&gt;" style="rounded=1;whiteSpace=wrap;html=1;fontFamily=VK Sans Display;strokeColor=#7C8A9A;arcsize=12;fillColor=#FFFFFF;spacing=0;spacingTop=12;spacingBottom=12;arcSize=12;absoluteArcSize=1;strokeWidth=1;container=0;" vertex="1" parent="7g6ssikjgnAoYL0zabRa-1">
          <mxGeometry x="241.25" y="195.25" width="137.5" height="40" as="geometry" />
        </mxCell>
        <mxCell id="7g6ssikjgnAoYL0zabRa-21" value="&lt;span style=&quot;color: rgb(33, 33, 33);&quot;&gt;Группа worker-узлов&amp;nbsp;B&lt;/span&gt;" style="rounded=1;whiteSpace=wrap;html=1;fontFamily=VK Sans Display;strokeColor=#7C8A9A;arcsize=12;fillColor=#FFFFFF;spacing=0;spacingTop=12;spacingBottom=12;arcSize=12;absoluteArcSize=1;strokeWidth=1;container=0;" vertex="1" parent="7g6ssikjgnAoYL0zabRa-1">
          <mxGeometry x="251.25" y="205.25" width="137.5" height="40" as="geometry" />
        </mxCell>
        <mxCell id="7g6ssikjgnAoYL0zabRa-22" style="edgeStyle=orthogonalEdgeStyle;shape=connector;rounded=1;orthogonalLoop=1;jettySize=auto;html=1;labelBackgroundColor=default;strokeColor=#7C8A9A;strokeWidth=1;fontFamily=VK Sans Display;fontSize=16;fontColor=#212121;startArrow=none;startFill=0;endArrow=none;endFill=0;exitX=1;exitY=0.5;exitDx=0;exitDy=0;entryX=0;entryY=0.5;entryDx=0;entryDy=0;" edge="1" parent="7g6ssikjgnAoYL0zabRa-1" source="7g6ssikjgnAoYL0zabRa-18" target="7g6ssikjgnAoYL0zabRa-5">
          <mxGeometry relative="1" as="geometry">
            <mxPoint x="400" y="170" as="sourcePoint" />
            <mxPoint x="441" y="130" as="targetPoint" />
            <Array as="points">
              <mxPoint x="420" y="145" />
              <mxPoint x="420" y="126" />
            </Array>
          </mxGeometry>
        </mxCell>
        <mxCell id="7g6ssikjgnAoYL0zabRa-23" style="edgeStyle=orthogonalEdgeStyle;shape=connector;rounded=1;orthogonalLoop=1;jettySize=auto;html=1;labelBackgroundColor=default;strokeColor=#7C8A9A;strokeWidth=1;fontFamily=VK Sans Display;fontSize=16;fontColor=#212121;startArrow=none;startFill=0;endArrow=none;endFill=0;exitX=1;exitY=0.5;exitDx=0;exitDy=0;entryX=0;entryY=0.25;entryDx=0;entryDy=0;" edge="1" parent="7g6ssikjgnAoYL0zabRa-1" target="7g6ssikjgnAoYL0zabRa-16">
          <mxGeometry relative="1" as="geometry">
            <mxPoint x="178.75" y="143.75" as="sourcePoint" />
            <mxPoint x="230.75" y="124.75" as="targetPoint" />
            <Array as="points">
              <mxPoint x="200" y="144" />
              <mxPoint x="200" y="115" />
              <mxPoint x="231" y="115" />
            </Array>
          </mxGeometry>
        </mxCell>
        <mxCell id="7g6ssikjgnAoYL0zabRa-24" style="edgeStyle=orthogonalEdgeStyle;shape=connector;rounded=1;orthogonalLoop=1;jettySize=auto;html=1;labelBackgroundColor=default;strokeColor=#7C8A9A;strokeWidth=1;fontFamily=VK Sans Display;fontSize=16;fontColor=#212121;startArrow=none;startFill=0;endArrow=none;endFill=0;exitX=0.426;exitY=1.003;exitDx=0;exitDy=0;entryX=0.575;entryY=0.005;entryDx=0;entryDy=0;entryPerimeter=0;exitPerimeter=0;" edge="1" parent="7g6ssikjgnAoYL0zabRa-1" source="7g6ssikjgnAoYL0zabRa-18">
          <mxGeometry relative="1" as="geometry">
            <mxPoint x="309.94000000000005" y="170.25" as="sourcePoint" />
            <mxPoint x="309.94000000000005" y="185.25" as="targetPoint" />
            <Array as="points" />
          </mxGeometry>
        </mxCell>
        <mxCell id="7g6ssikjgnAoYL0zabRa-47" style="edgeStyle=orthogonalEdgeStyle;shape=connector;rounded=1;orthogonalLoop=1;jettySize=auto;html=1;labelBackgroundColor=default;strokeColor=#7C8A9A;strokeWidth=1;fontFamily=VK Sans Display;fontSize=16;fontColor=#212121;startArrow=none;startFill=0;endArrow=none;endFill=0;entryX=0;entryY=0.75;entryDx=0;entryDy=0;movable=1;resizable=1;rotatable=1;deletable=1;editable=1;locked=0;connectable=1;exitX=1;exitY=0.5;exitDx=0;exitDy=0;" edge="1" parent="7g6ssikjgnAoYL0zabRa-1" source="7g6ssikjgnAoYL0zabRa-14">
          <mxGeometry relative="1" as="geometry">
            <mxPoint x="180" y="225" as="sourcePoint" />
            <mxPoint x="231.75" y="133.25" as="targetPoint" />
            <Array as="points">
              <mxPoint x="210" y="225" />
              <mxPoint x="210" y="133" />
            </Array>
          </mxGeometry>
        </mxCell>
      </root>
    </mxGraphModel>
  </diagram>
</mxfile>
